# Blender v3.1.2 OBJ File: 'assets.blend'
# www.blender.org
mtllib arrow.mtl
o arrow
v 0.000000 0.005000 -0.100000
v 0.000000 0.005000 0.104085
v 0.003536 0.003536 -0.100000
v 0.003536 0.003536 0.104085
v 0.005000 0.000000 -0.100000
v 0.005000 -0.000000 0.104085
v 0.003536 -0.003536 -0.100000
v 0.003536 -0.003536 0.104085
v -0.000000 -0.005000 -0.100000
v -0.000000 -0.005000 0.104085
v -0.003536 -0.003536 -0.100000
v -0.003536 -0.003536 0.104085
v -0.005000 0.000000 -0.100000
v -0.005000 -0.000000 0.104085
v -0.003536 0.003536 -0.100000
v -0.003536 0.003536 0.104085
v -0.025000 0.000000 -0.075000
v 0.025000 0.000000 -0.075000
v -0.025000 0.000000 -0.125000
v 0.025000 0.000000 -0.125000
v 0.000000 0.000000 -0.045000
v 0.000000 0.025000 -0.075000
v -0.000000 -0.025000 -0.075000
v 0.000000 0.025000 -0.125000
v -0.000000 -0.025000 -0.125000
v 0.000000 0.000000 -0.045000
v 0.004851 0.015926 0.102808
v 0.000000 0.022522 0.103971
v 0.006861 -0.000000 0.100000
v 0.004851 -0.015926 0.102808
v -0.000000 -0.022522 0.103971
v -0.004851 -0.015926 0.102808
v -0.006861 -0.000000 0.100000
v -0.004851 0.015926 0.102808
v 0.000000 0.000000 0.130268
vt 0.721737 0.010431
vt 0.989569 0.010431
vt 0.989569 0.077389
vt 0.721737 0.077389
vt 0.989569 0.144347
vt 0.721737 0.144347
vt 0.989569 0.211305
vt 0.721737 0.211305
vt 0.989569 0.278263
vt 0.721737 0.278263
vt 0.989569 0.345221
vt 0.721737 0.345221
vt 0.989569 0.412179
vt 0.721737 0.412179
vt 0.989569 0.479137
vt 0.721737 0.479137
vt 0.989569 0.546095
vt 0.721737 0.546095
vt 0.010431 0.636534
vt 0.010431 0.734929
vt 0.080007 0.804505
vt 0.178402 0.804505
vt 0.247978 0.734929
vt 0.247978 0.636534
vt 0.178402 0.566958
vt 0.080007 0.566958
vt 0.780603 0.566958
vt 0.819046 0.607435
vt 0.753419 0.615716
vt 0.366084 0.211305
vt 0.700874 0.211305
vt 0.700874 0.546095
vt 0.366084 0.546095
vt 0.533479 0.010431
vt 0.010431 0.211305
vt 0.345221 0.211305
vt 0.345221 0.546095
vt 0.010431 0.546095
vt 0.177826 0.010431
vt 0.521974 0.758130
vt 0.572392 0.662496
vt 0.732557 0.799636
vt 0.658815 0.593602
vt 0.703814 0.566958
vt 0.285524 0.734394
vt 0.347286 0.645663
vt 0.489429 0.801404
vt 0.441503 0.587884
vt 0.489429 0.566958
vt 0.510292 0.799636
vt 0.268841 0.774155
vt 0.846230 0.713437
vt 0.753419 0.725148
vt 0.846230 0.822869
vt 0.780603 0.831150
vt 0.819046 0.871627
vn 0.3827 0.9239 0.0000
vn 0.9239 0.3827 0.0000
vn 0.9239 -0.3827 -0.0000
vn 0.3827 -0.9239 -0.0000
vn -0.3827 -0.9239 -0.0000
vn -0.9239 -0.3827 -0.0000
vn -0.9239 0.3827 0.0000
vn -0.3827 0.9239 0.0000
vn 0.0000 0.0000 -1.0000
vn 0.0000 0.1736 -0.9848
vn 0.0000 1.0000 0.0000
vn 1.0000 -0.0000 0.0000
vn -0.9718 0.0838 0.2203
vn -0.7652 -0.4889 0.4188
vn 0.9718 -0.0838 0.2203
vn 0.7652 0.4889 0.4188
vn -0.7652 0.4889 0.4188
vn -0.9718 -0.0838 0.2203
vn 0.7652 -0.4889 0.4188
vn 0.9718 0.0838 0.2203
vn 0.0000 -0.1736 -0.9848
usemtl arrow
s off
f 1/1/1 2/2/1 4/3/1 3/4/1
f 3/4/2 4/3/2 6/5/2 5/6/2
f 5/6/3 6/5/3 8/7/3 7/8/3
f 7/8/4 8/7/4 10/9/4 9/10/4
f 9/10/5 10/9/5 12/11/5 11/12/5
f 11/12/6 12/11/6 14/13/6 13/14/6
f 13/14/7 14/13/7 16/15/7 15/16/7
f 15/16/8 16/15/8 2/17/8 1/18/8
f 1/19/9 3/20/9 5/21/9 7/22/9 9/23/9 11/24/9 13/25/9 15/26/9
f 28/27/10 27/28/10 34/29/10
f 17/30/11 18/31/11 20/32/11 19/33/11
f 18/31/11 17/30/11 21/34/11
f 22/35/12 23/36/12 25/37/12 24/38/12
f 23/36/12 22/35/12 26/39/12
f 34/40/13 33/41/13 35/42/13
f 32/43/14 31/44/14 35/42/14
f 30/45/15 29/46/15 35/47/15
f 27/48/16 28/49/16 35/47/16
f 28/50/17 34/40/17 35/42/17
f 33/41/18 32/43/18 35/42/18
f 31/51/19 30/45/19 35/47/19
f 29/46/20 27/48/20 35/47/20
f 29/52/10 33/53/10 34/29/10 27/28/10
f 30/54/21 32/55/21 33/53/21 29/52/21
f 31/56/21 32/55/21 30/54/21
