# Blender v3.1.2 OBJ File: 'assets.blend'
# www.blender.org
mtllib pedestal.mtl
o pedestal.001_Cube.004
v 0.771379 -0.250000 0.250000
v 0.750000 -0.250000 0.228621
v 0.771721 0.260000 0.219623
v 0.780377 0.260000 0.228279
v 0.750000 -0.250000 -0.228621
v 0.771379 -0.250000 -0.250000
v 0.780377 0.260000 -0.228279
v 0.771721 0.260000 -0.219623
v 1.250000 -0.250000 0.228621
v 1.228621 -0.250000 0.250000
v 1.219623 0.260000 0.228279
v 1.228279 0.260000 0.219623
v 1.228621 -0.250000 -0.250000
v 1.250000 -0.250000 -0.228621
v 1.228279 0.260000 -0.219623
v 1.219623 0.260000 -0.228279
v 0.771434 -0.166667 0.250000
v 0.750000 -0.166667 0.228566
v 0.750000 0.166667 0.228566
v 0.771434 0.166667 0.250000
v 0.771434 0.166667 -0.250000
v 0.750000 0.166667 -0.228566
v 0.750000 -0.166667 -0.228566
v 0.771434 -0.166667 -0.250000
v 1.228566 0.166667 -0.250000
v 1.250000 0.166667 -0.228566
v 1.228566 -0.166667 -0.250000
v 1.250000 -0.166667 -0.228566
v 1.250000 0.166667 0.228566
v 1.228566 0.166667 0.250000
v 1.250000 -0.166667 0.228566
v 1.228566 -0.166667 0.250000
v 0.785355 -0.133333 0.193170
v 0.806830 -0.133333 0.214645
v 0.785355 0.133333 0.193170
v 0.806830 0.133333 0.214645
v 0.806830 0.133333 -0.214645
v 0.785355 0.133333 -0.193170
v 0.806830 -0.133333 -0.214645
v 0.785355 -0.133333 -0.193170
v 1.214645 0.133333 -0.193170
v 1.193170 0.133333 -0.214645
v 1.214645 -0.133333 -0.193170
v 1.193170 -0.133333 -0.214645
v 1.193170 0.133333 0.214645
v 1.214645 0.133333 0.193170
v 1.193170 -0.133333 0.214645
v 1.214645 -0.133333 0.193170
v 0.771379 0.250000 0.250000
v 0.750000 0.250000 0.228621
v 0.750000 0.250000 -0.228621
v 0.771379 0.250000 -0.250000
v 1.228621 0.250000 -0.250000
v 1.250000 0.250000 -0.228621
v 1.250000 0.250000 0.228621
v 1.228621 0.250000 0.250000
v 0.742068 0.265000 0.150000
v 1.257932 0.265000 0.150000
v 0.742068 0.265000 -0.150000
v 1.257932 0.265000 -0.150000
v 0.742068 -0.003020 0.150000
v 1.257932 -0.003020 0.150000
v 0.742068 -0.003020 -0.150000
v 1.257932 -0.003020 -0.150000
vt 0.753253 0.517178
vt 0.757581 0.512850
vt 0.977204 0.512850
vt 0.981532 0.517178
vt 0.981532 0.736801
vt 0.977204 0.741129
vt 0.757581 0.741129
vt 0.753253 0.736802
vt 0.492392 0.512679
vt 0.575726 0.512707
vt 0.575726 0.741272
vt 0.492392 0.741300
vt 0.575726 0.991273
vt 0.575726 0.762707
vt 0.575726 0.764496
vt 0.575726 0.989484
vt 0.659059 0.012707
vt 0.742392 0.012679
vt 0.742392 0.241300
vt 0.659059 0.241272
vt 0.492392 0.762679
vt 0.492392 0.991300
vt 0.492392 0.262679
vt 0.575726 0.262707
vt 0.575726 0.491272
vt 0.492392 0.491300
vt 0.659059 0.762707
vt 0.742392 0.762679
vt 0.742392 0.991300
vt 0.659059 0.991273
vt 0.659059 0.262707
vt 0.659059 0.491272
vt 0.659059 0.489484
vt 0.659059 0.264496
vt 0.659059 0.512707
vt 0.742392 0.512679
vt 0.742392 0.741300
vt 0.659059 0.741272
vt 0.575726 0.514496
vt 0.575726 0.739484
vt 0.742392 0.262679
vt 0.742392 0.491300
vt 0.575726 0.264496
vt 0.575726 0.489484
vt 0.242392 0.512679
vt 0.253082 0.501990
vt 0.481703 0.501990
vt 0.481703 0.751990
vt 0.253082 0.751990
vt 0.242392 0.741300
vt 0.659059 0.989484
vt 0.659059 0.764496
vt 0.659059 0.514496
vt 0.659059 0.739484
vt 0.659059 0.239484
vt 0.659059 0.014496
vt 0.575726 0.014496
vt 0.575726 0.239484
vt 0.575726 0.241272
vt 0.575726 0.012707
vt 0.659059 0.001990
vt 0.742392 0.001990
vt 0.492392 0.241300
vt 0.492392 0.001990
vt 0.575726 0.001990
vt 0.492392 0.012679
vt 0.659059 0.001990
vt 0.575726 0.001990
vt 0.992392 0.741300
vt 0.981703 0.751990
vt 0.981703 0.501990
vt 0.992392 0.512679
vt 0.753082 0.501990
vt 0.753082 0.751990
vt 0.034315 0.653695
vt 0.034315 0.346305
vt 0.213077 0.346305
vt 0.213077 0.653695
vt 0.034315 0.186599
vt 0.213077 0.186599
vt 0.213077 0.813401
vt 0.034315 0.813401
vn 0.0000 1.0000 0.0000
vn 1.0000 0.0000 0.0000
vn 0.0000 0.7276 0.6860
vn -1.0000 0.0000 0.0000
vn 0.0000 0.0000 1.0000
vn 0.0000 0.0000 -1.0000
vn 0.0000 -0.7276 -0.6860
vn 0.6860 0.7276 0.0000
vn 0.0000 0.7276 -0.6860
vn 0.0000 -1.0000 0.0000
vn 0.0000 -0.7276 0.6860
vn -0.6860 -0.7276 0.0000
vn 0.6860 -0.7276 0.0000
vn -0.6860 0.7276 0.0000
vn -0.7071 -0.0005 0.7071
vn -0.7071 0.0005 -0.7071
vn 0.7071 0.0005 -0.7071
vn 0.7071 0.0005 0.7071
vn -0.7071 0.0005 0.7071
vn 0.3921 -0.8322 0.3921
vn -0.7071 -0.0005 -0.7071
vn 0.3921 -0.8322 -0.3921
vn 0.7071 -0.0005 -0.7071
vn -0.3921 -0.8322 0.3921
vn 0.7071 -0.0005 0.7071
vn -0.3921 -0.8322 -0.3921
vn -0.7071 0.0000 0.7071
vn -0.7071 0.0000 -0.7071
vn 0.7071 0.0000 -0.7071
vn 0.7071 0.0000 0.7071
vn -0.3921 0.8322 0.3921
vn -0.3921 0.8322 -0.3921
vn 0.3921 0.8322 -0.3921
vn 0.3921 0.8322 0.3921
vn -0.2957 0.9084 0.2957
vn -0.2957 0.9084 -0.2957
vn 0.2957 0.9084 -0.2957
vn 0.2957 0.9084 0.2957
vn 0.0000 0.9084 0.4182
vn -0.4182 0.9084 0.0000
vn 0.4182 0.9084 0.0000
vn 0.0000 0.9084 -0.4182
usemtl Material.001
s off
f 15/1/1 16/2/1 7/3/1 8/4/1 3/5/1 4/6/1 11/7/1 12/8/1
f 14/9/2 28/10/2 31/11/2 9/12/2
f 17/13/3 32/14/3 47/15/3 34/16/3
f 19/17/4 50/18/4 51/19/4 22/20/4
f 10/21/5 32/14/5 17/13/5 1/22/5
f 6/23/6 24/24/6 27/25/6 13/26/6
f 30/27/5 56/28/5 49/29/5 20/30/5
f 21/31/7 25/32/7 42/33/7 37/34/7
f 26/35/2 54/36/2 55/37/2 29/38/2
f 31/11/8 28/10/8 43/39/8 48/40/8
f 21/31/6 52/41/6 53/42/6 25/32/6
f 27/25/9 24/24/9 39/43/9 44/44/9
f 5/45/10 6/46/10 13/47/10 14/9/10 9/12/10 10/48/10 1/49/10 2/50/10
f 30/27/11 20/30/11 36/51/11 45/52/11
f 39/43/6 37/34/6 42/33/6 44/44/6
f 43/39/2 41/53/2 46/54/2 48/40/2
f 47/15/5 45/52/5 36/51/5 34/16/5
f 19/17/12 22/20/12 38/55/12 35/56/12
f 26/35/13 29/38/13 46/54/13 41/53/13
f 33/57/4 35/56/4 38/55/4 40/58/4
f 23/59/14 18/60/14 33/57/14 40/58/14
f 20/61/15 49/62/15 50/18/15 19/17/15
f 24/24/16 6/23/16 5/63/16 23/59/16
f 28/10/17 14/9/17 13/26/17 27/25/17
f 32/14/18 10/21/18 9/12/18 31/11/18
f 1/64/19 17/65/19 18/60/19 2/66/19
f 30/27/20 45/52/20 46/54/20 29/38/20
f 52/41/21 21/31/21 22/20/21 51/19/21
f 26/35/22 41/53/22 42/33/22 25/32/22
f 54/36/23 26/35/23 25/32/23 53/42/23
f 36/67/24 20/61/24 19/17/24 35/56/24
f 56/28/25 30/27/25 29/38/25 55/37/25
f 21/31/26 37/34/26 38/55/26 22/20/26
f 34/68/27 36/67/27 35/56/27 33/57/27
f 37/34/28 39/43/28 40/58/28 38/55/28
f 41/53/29 43/39/29 44/44/29 42/33/29
f 45/52/30 47/15/30 48/40/30 46/54/30
f 17/65/31 34/68/31 33/57/31 18/60/31
f 39/43/32 24/24/32 23/59/32 40/58/32
f 43/39/33 28/10/33 27/25/33 44/44/33
f 47/15/34 32/14/34 31/11/34 48/40/34
f 2/66/4 18/60/4 23/59/4 5/63/4
f 4/6/35 3/5/35 50/69/35 49/70/35
f 8/4/36 7/3/36 52/71/36 51/72/36
f 16/2/37 15/1/37 54/36/37 53/73/37
f 12/8/38 11/7/38 56/74/38 55/37/38
f 11/7/39 4/6/39 49/70/39 56/74/39
f 3/5/40 8/4/40 51/72/40 50/69/40
f 15/1/41 12/8/41 55/37/41 54/36/41
f 7/3/42 16/2/42 53/73/42 52/71/42
f 57/75/1 58/76/1 60/77/1 59/78/1
f 60/77/2 58/76/2 62/79/2 64/80/2
f 57/75/4 59/78/4 63/81/4 61/82/4
