# Blender v3.1.2 OBJ File: 'assets.blend'
# www.blender.org
mtllib sword.mtl
o sword_Icosphere
v 0.000000 -0.040000 1.000000
v 0.028944 -0.017889 1.021029
v -0.011055 -0.017889 1.034026
v -0.035777 -0.017889 1.000000
v -0.011055 -0.017889 0.965974
v 0.028944 -0.017889 0.978971
v 0.011055 0.017889 1.034026
v -0.028944 0.017889 1.021029
v -0.028944 0.017889 0.978971
v 0.011055 0.017889 0.965974
v 0.035777 0.017889 1.000000
v 0.000000 0.040000 1.000000
v 0.000000 0.020000 0.984000
v 0.000000 0.160000 0.984000
v 0.011314 0.020000 0.988686
v 0.011314 0.160000 0.988686
v 0.016000 0.020000 1.000000
v 0.016000 0.160000 1.000000
v 0.011314 0.020000 1.011314
v 0.011314 0.160000 1.011314
v -0.000000 0.020000 1.016000
v -0.000000 0.160000 1.016000
v -0.011314 0.020000 1.011314
v -0.011314 0.160000 1.011314
v -0.016000 0.020000 1.000000
v -0.016000 0.160000 1.000000
v -0.011314 0.020000 0.988686
v -0.011314 0.160000 0.988686
v -0.050000 0.157500 1.019228
v -0.050000 0.163272 1.025000
v -0.050000 0.176728 1.025000
v -0.050000 0.182500 1.019228
v -0.050000 0.163272 0.975000
v -0.050000 0.157500 0.980772
v -0.050000 0.182500 0.980772
v -0.050000 0.176728 0.975000
v 0.050000 0.163272 1.025000
v 0.050000 0.157500 1.019228
v 0.050000 0.182500 1.019228
v 0.050000 0.176728 1.025000
v 0.050000 0.157500 0.980772
v 0.050000 0.163272 0.975000
v 0.050000 0.176728 0.975000
v 0.050000 0.182500 0.980772
v 0.100000 0.190263 0.987500
v 0.100000 0.184491 0.990386
v -0.100000 0.184491 0.990386
v -0.100000 0.190263 0.987500
v -0.100000 0.203719 0.987500
v -0.100000 0.209491 0.990386
v 0.100000 0.209491 0.990386
v 0.100000 0.203719 0.987500
v -0.100000 0.190263 1.012500
v -0.100000 0.184491 1.009614
v 0.100000 0.184491 1.009614
v 0.100000 0.190263 1.012500
v 0.100000 0.203719 1.012500
v 0.100000 0.209491 1.009614
v -0.100000 0.209491 1.009614
v -0.100000 0.203719 1.012500
v -0.006750 0.180001 1.015000
v -0.006750 0.540001 1.015000
v -0.006750 0.180001 0.985000
v -0.006750 0.540001 0.985000
v 0.006750 0.180001 1.015000
v 0.006750 0.540001 1.015000
v 0.006750 0.180001 0.985000
v 0.006750 0.540001 0.985000
v -0.033750 0.180001 1.000000
v -0.033750 0.540001 1.000000
v 0.033750 0.180001 1.000000
v 0.033750 0.540001 1.000000
v 0.000000 0.690001 1.000000
vt 0.317917 0.213528
vt 0.450769 0.232205
vt 0.446354 0.306904
vt 0.449107 0.157937
vt 0.441873 0.383219
vt 0.443610 0.082481
vt 0.562229 0.194408
vt 0.560493 0.271292
vt 0.554996 0.346748
vt 0.443610 0.460103
vt 0.553334 0.421016
vt 0.449107 0.535559
vt 0.557748 0.495715
vt 0.557748 0.118093
vt 0.686185 0.024717
vt 0.686185 0.402339
vt 0.384892 0.566433
vt 0.384892 0.981632
vt 0.348924 0.981632
vt 0.348924 0.566433
vt 0.312956 0.981632
vt 0.312956 0.566433
vt 0.600700 0.566432
vt 0.600700 0.981631
vt 0.564732 0.981631
vt 0.564732 0.566432
vt 0.528764 0.981631
vt 0.528764 0.566433
vt 0.492796 0.981631
vt 0.492796 0.566433
vt 0.456828 0.981631
vt 0.456828 0.566433
vt 0.420860 0.981631
vt 0.420860 0.566433
vt 0.836571 0.861388
vt 0.801931 0.861832
vt 0.803006 0.656307
vt 0.837646 0.655864
vt 0.855386 0.861148
vt 0.929636 0.860197
vt 0.929013 0.979202
vt 0.854763 0.980153
vt 0.708866 0.863023
vt 0.709941 0.657499
vt 0.784191 0.656548
vt 0.783117 0.862073
vt 0.949525 0.654432
vt 0.930711 0.654673
vt 0.931333 0.535667
vt 0.950148 0.535426
vt 0.656487 0.658183
vt 0.691127 0.657740
vt 0.690052 0.863264
vt 0.655412 0.863707
vt 0.948450 0.859956
vt 0.856461 0.655623
vt 0.768731 0.495334
vt 0.761474 0.480340
vt 0.761474 0.445387
vt 0.768731 0.430393
vt 0.817078 0.430393
vt 0.824335 0.445387
vt 0.824335 0.480340
vt 0.817078 0.495334
vt 0.889528 0.492604
vt 0.882272 0.477610
vt 0.882272 0.442657
vt 0.889528 0.427663
vt 0.937875 0.427663
vt 0.945132 0.442657
vt 0.945132 0.477610
vt 0.937875 0.492604
vt 0.835949 0.980394
vt 0.803629 0.537302
vt 0.838269 0.536858
vt 0.691749 0.538734
vt 0.710564 0.538493
vt 0.784814 0.537543
vt 0.801309 0.980837
vt 0.782494 0.981078
vt 0.657109 0.539178
vt 0.708244 0.982028
vt 0.689429 0.982269
vt 0.947828 0.978962
vt 0.857083 0.536618
vt 0.983091 0.859513
vt 0.982468 0.978518
vt 0.145317 0.000000
vt 0.145317 0.705882
vt 0.198258 0.705882
vt 0.198258 0.000000
vt 0.224729 0.705882
vt 0.224729 0.000000
vt 0.136176 0.000000
vt 0.136176 0.705882
vt 0.083235 0.705882
vt 0.083235 0.000000
vt 0.056765 0.705882
vt 0.056765 0.000000
vt 0.070000 1.000000
vt 0.211493 1.000000
vt 0.277670 0.705882
vt 0.277670 0.000000
vt 0.003823 0.705882
vt 0.003823 0.000000
vn 0.1876 -0.7947 0.5774
vn 0.6071 -0.7947 0.0000
vn -0.4911 -0.7947 0.3568
vn -0.4911 -0.7947 -0.3568
vn 0.1876 -0.7947 -0.5774
vn 0.9822 -0.1876 0.0000
vn 0.3035 -0.1876 0.9342
vn -0.7946 -0.1876 0.5774
vn -0.7946 -0.1876 -0.5774
vn 0.3035 -0.1876 -0.9342
vn 0.7946 0.1876 0.5774
vn -0.3035 0.1876 0.9342
vn -0.9822 0.1876 0.0000
vn -0.3035 0.1876 -0.9342
vn 0.7946 0.1876 -0.5774
vn 0.4911 0.7947 0.3568
vn -0.1876 0.7947 0.5774
vn -0.6071 0.7947 0.0000
vn -0.1876 0.7947 -0.5774
vn 0.4911 0.7947 -0.3568
vn 0.3827 0.0000 -0.9239
vn 0.9239 0.0000 -0.3827
vn 0.9239 0.0000 0.3827
vn 0.3827 0.0000 0.9239
vn -0.3827 0.0000 0.9239
vn -0.9239 0.0000 0.3827
vn -0.9239 0.0000 -0.3827
vn -0.3827 0.0000 -0.9239
vn 0.0000 0.0000 1.0000
vn 0.4750 -0.8800 0.0000
vn 0.0000 1.0000 0.0000
vn -0.4478 -0.5365 -0.7153
vn 0.0000 0.0000 -1.0000
vn 0.0000 -0.7071 -0.7071
vn 0.0000 0.7071 -0.7071
vn 0.0000 -0.7071 0.7071
vn 0.0000 0.7071 0.7071
vn 0.0000 -1.0000 0.0000
vn 1.0000 0.0000 0.0000
vn -1.0000 0.0000 0.0000
vn 0.4478 -0.5365 0.7153
vn -0.2425 0.0000 0.9701
vn 0.1454 0.5936 -0.7915
vn 0.4750 0.8800 0.0000
vn -0.1454 0.5936 0.7915
vn -0.2425 0.0000 -0.9701
vn -0.1454 0.5936 -0.7915
vn 0.2425 0.0000 0.9701
vn 0.1454 0.5936 0.7915
vn -0.4750 0.8800 0.0000
vn 0.4478 -0.5365 -0.7153
vn -0.4478 -0.5365 0.7153
vn 0.2425 0.0000 -0.9701
vn -0.4750 -0.8800 0.0000
vn -0.4856 0.0000 -0.8742
vn 0.4856 0.0000 0.8742
vn 0.4828 0.1086 0.8690
vn 0.0000 0.0995 -0.9950
vn 0.4856 0.0000 -0.8742
vn -0.4856 0.0000 0.8742
vn 0.4828 0.1086 -0.8690
vn -0.4828 0.1086 0.8690
vn -0.4828 0.1086 -0.8690
vn 0.0000 0.0995 0.9950
usemtl Material
s off
f 1/1/1 2/2/1 3/3/1
f 2/2/2 1/1/2 6/4/2
f 1/1/3 3/3/3 4/5/3
f 1/1/4 4/5/4 5/6/4
f 1/1/5 5/6/5 6/4/5
f 2/2/6 6/4/6 11/7/6
f 3/3/7 2/2/7 7/8/7
f 4/5/8 3/3/8 8/9/8
f 5/10/9 4/5/9 9/11/9
f 6/12/10 5/10/10 10/13/10
f 2/2/11 11/7/11 7/8/11
f 3/3/12 7/8/12 8/9/12
f 4/5/13 8/9/13 9/11/13
f 5/10/14 9/11/14 10/13/14
f 6/4/15 10/14/15 11/7/15
f 7/8/16 11/7/16 12/15/16
f 8/9/17 7/8/17 12/16/17
f 9/11/18 8/9/18 12/16/18
f 10/13/19 9/11/19 12/16/19
f 11/7/20 10/14/20 12/15/20
f 13/17/21 14/18/21 16/19/21 15/20/21
f 15/20/22 16/19/22 18/21/22 17/22/22
f 17/23/23 18/24/23 20/25/23 19/26/23
f 19/26/24 20/25/24 22/27/24 21/28/24
f 21/28/25 22/27/25 24/29/25 23/30/25
f 23/30/26 24/29/26 26/31/26 25/32/26
f 25/32/27 26/31/27 28/33/27 27/34/27
f 27/34/28 28/33/28 14/18/28 13/17/28
f 37/35/29 40/36/29 31/37/29 30/38/29
f 38/39/30 41/40/30 46/41/30 55/42/30
f 44/43/31 35/44/31 32/45/31 39/46/31
f 33/47/32 34/48/32 47/49/32 48/50/32
f 33/51/33 36/52/33 43/53/33 42/54/33
f 41/40/34 34/48/34 33/47/34 42/55/34
f 35/44/35 44/43/35 43/53/35 36/52/35
f 29/56/36 38/39/36 37/35/36 30/38/36
f 39/46/37 32/45/37 31/37/37 40/36/37
f 34/48/38 41/40/38 38/39/38 29/56/38
f 46/57/39 45/58/39 52/59/39 51/60/39 58/61/39 57/62/39 56/63/39 55/64/39
f 54/65/40 53/66/40 60/67/40 59/68/40 50/69/40 49/70/40 48/71/40 47/72/40
f 37/35/41 38/39/41 55/42/41 56/73/41
f 30/38/42 31/37/42 60/74/42 53/75/42
f 35/44/43 36/52/43 49/76/43 50/77/43
f 32/45/44 35/44/44 50/77/44 59/78/44
f 39/46/45 40/36/45 57/79/45 58/80/45
f 36/52/46 33/51/46 48/81/46 49/76/46
f 43/53/47 44/43/47 51/82/47 52/83/47
f 40/36/48 37/35/48 56/73/48 57/79/48
f 31/37/49 32/45/49 59/78/49 60/74/49
f 44/43/50 39/46/50 58/80/50 51/82/50
f 41/40/51 42/55/51 45/84/51 46/41/51
f 29/56/52 30/38/52 53/75/52 54/85/52
f 42/55/53 43/86/53 52/87/53 45/84/53
f 34/48/54 29/56/54 54/85/54 47/49/54
f 69/88/55 70/89/55 64/90/55 63/91/55
f 63/91/33 64/90/33 68/92/33 67/93/33
f 71/94/56 72/95/56 66/96/56 65/97/56
f 65/97/29 66/96/29 62/98/29 61/99/29
f 66/96/57 72/95/57 73/100/57
f 68/92/58 64/90/58 73/101/58
f 67/93/59 68/92/59 72/102/59 71/103/59
f 61/99/60 62/98/60 70/104/60 69/105/60
f 72/102/61 68/92/61 73/101/61
f 70/104/62 62/98/62 73/100/62
f 64/90/63 70/89/63 73/101/63
f 62/98/64 66/96/64 73/100/64
